<svg id="Layer_1" data-name="Layer 1" xmlns="http://www.w3.org/2000/svg" viewBox="0 0 466.37 148.08"><defs><style>.cls-1{fill:#f4b400;}.cls-2{fill:#db4437;}.cls-3{fill:#4285f4;}.cls-4{fill:#0f9d58;}</style></defs><path class="cls-1" d="M40.55,53.79,27.05,63.91a4.52,4.52,0,0,1,4.5,4.5v37.13c0,8.44-5.74,19.24-13.5,22.5a22.57,22.57,0,0,0,22.5-22.5Z"/><path class="cls-2" d="M74,44.45V42.31a7.94,7.94,0,0,0,2.82.68c1.57,0,2.81-.45,2.81-1.47A1.44,1.44,0,0,0,78.13,40c-.9,0-1.35.67-1.8,1.46A3.13,3.13,0,0,1,75.88,40c0-1.58,2.13-3.38,4.83-3.38a4.81,4.81,0,0,1,4.73,4.62V43a1.4,1.4,0,0,1-1.35,1.46ZM63.05,42.54a5.34,5.34,0,0,0,.34,2c.79,2.36,2.92,4.73,5.17,4.73H84.09A6.33,6.33,0,0,0,90.17,43v-1.8a9.35,9.35,0,0,0-9.46-9.34A11.37,11.37,0,0,0,74,34.44V32.52c0-1.57,1.35-2.25,3-2.25l-7.65-6V44.45H68A8.14,8.14,0,0,1,63.05,42.54Zm39.83,56.92c0-1.46-.11-2.92-1.58-2.92-2.36,0-4.5-1.69-4.5-3.83V75.16a21.38,21.38,0,0,0-42.75,0c0,7.77,5.74,13.39,12.26,13.39,3.38,0,8.33-1.46,8.33-5.51a4.5,4.5,0,0,0-9-.23A12.39,12.39,0,1,1,87.8,75.16V92.49a4.36,4.36,0,0,1-4.5,4.05H60.8A4.52,4.52,0,0,1,56.3,92l-9,13.5h36a13.7,13.7,0,0,0,9-3.38,13.31,13.31,0,0,0,9,3.38c1.47,0,1.58-1.46,1.58-2.93Z"/><path class="cls-1" d="M110.3,44.79a4.5,4.5,0,1,0,4.5-4.5A4.52,4.52,0,0,0,110.3,44.79ZM130,99.58c0-1.58-.22-3-1.69-3h-4.5a4.52,4.52,0,0,1-4.5-4.5V53.79L105.8,63.91a4.51,4.51,0,0,1,4.5,4.5V92a4.51,4.51,0,0,1-4.5,4.5h-4.5c-1.46,0-1.68,1.46-1.68,3v2.92c0,1.58.22,3,1.68,3h4.5a13.7,13.7,0,0,0,9-3.38,13.31,13.31,0,0,0,9,3.38h4.5c1.47,0,1.69-1.46,1.69-3Z"/><path class="cls-1" d="M150.81,50.86a11.41,11.41,0,0,0-.34-2.7,5.63,5.63,0,0,0-5.06-4h-4.17c-1.8,0-3.37-2.25-3.37-4.27V36.69a4.34,4.34,0,0,1,4-3.83c1.35,0,4.27.68,4.27,3.26a2.84,2.84,0,0,0-2-.9,2.64,2.64,0,0,0-2.7,2.59c0,2.25,2.81,2.81,4.05,2.81,2.14,0,4.61-2,4.61-5.4s-3.82-7.42-8.21-7.42c-5.4,0-9.34,3.82-9.34,8.89v3.15a5.17,5.17,0,0,0,1.91,4.27h-1.24a7.92,7.92,0,0,1-4.95-1.57,5.54,5.54,0,0,0,.34,2c.79,2.36,2.93,4.73,5.18,4.73h12.26A7.46,7.46,0,0,1,150.81,50.86ZM126.62,102.5c0,1.58.11,3,1.68,3h4.5a13.36,13.36,0,0,0,5.18-1,11.87,11.87,0,0,0,10.58,6.63c-1.69-2-2.25-5.28-2.25-9V53.79L132.8,63.91a4.52,4.52,0,0,1,4.51,4.5V92a4.52,4.52,0,0,1-4.51,4.5h-4.5c-1.57,0-1.68,1.46-1.68,3Z"/><path class="cls-3" d="M170.49,99.58c0-1.58-.22-3-1.68-3a4.51,4.51,0,0,1-4.5-4.5V34.66a4.51,4.51,0,0,1,4.5-4.5L155.31,20V92a13.54,13.54,0,0,0,13.5,13.5c1.46,0,1.68-1.46,1.68-3Z"/><path class="cls-3" d="M191.31,40.29a4.5,4.5,0,1,0,4.5-4.5A4.51,4.51,0,0,0,191.31,40.29Zm12.37,30.94a4.5,4.5,0,0,0,0,9A2.8,2.8,0,0,0,205,80c-2.13,1.91-7.2,3-10.35,3a12.38,12.38,0,1,1,12.38-12.38V72.8A4.39,4.39,0,0,0,203.68,71.23ZM167.12,102.5c0,1.58.22,3,1.69,3h33.75a13.31,13.31,0,0,0,5.17-1,11.87,11.87,0,0,0,10.58,6.63c-1.69-2-2.25-5.28-2.25-9V70.66a21.38,21.38,0,0,0-42.75,0c0,11.82,9.56,21.38,19.12,21.38,5.74,0,12-2.7,14.63-9.45V92a4.52,4.52,0,0,1-4.5,4.5H168.81c-1.47,0-1.69,1.46-1.69,3Z"/><path class="cls-4" d="M263.89,51.54a7.46,7.46,0,0,1-1.58-4.73v-6.3a5.71,5.71,0,0,0-4.05-5.17,5.34,5.34,0,0,0-2-.34,7.92,7.92,0,0,1,1.57,5v6.19a5.63,5.63,0,0,0,4.05,5.06A6.55,6.55,0,0,0,263.89,51.54Z"/><path class="cls-4" d="M307,75.73a4.5,4.5,0,0,0-9,.22c0,4,4.95,5.51,8.32,5.51,6.41,0,12.26-4,12.26-10.8a21.38,21.38,0,0,0-42.75,0v2.48c.11,8.44,7.31,19.46,27,19.46a4.62,4.62,0,0,1-4.5,3.94H265.69a14.6,14.6,0,0,1-14.63-14.63v-1.8c0-10.8,9.56-19.69,20.48-20.7a24.66,24.66,0,0,0-7-1.12,22.57,22.57,0,0,0-22.5,22.5v1.12a23.63,23.63,0,0,0,23.63,23.63h32.62A13.54,13.54,0,0,0,311.81,92V86.41c-23.74,0-27-7.87-27-13.27V70.78a12.38,12.38,0,1,1,24.75-.12C309.56,73,309.11,74.15,307,75.73Z"/><path class="cls-2" d="M373.5,99.58c0-1.58-.22-3-1.68-3a4.59,4.59,0,0,1-4.5-4.5V75.16a21.38,21.38,0,0,0-42.76,0v9c0,11.82,9.57,21.38,19.13,21.38,7.43,0,13.5-4.5,13.5-16.31a4.5,4.5,0,1,0-4.5,4.5A2.8,2.8,0,0,0,354,93.5a12,12,0,0,1-8.1,3,12.34,12.34,0,0,1-12.38-12.38v-9a12.38,12.38,0,0,1,24.76,0v31.05c0,10.81-9.57,19.69-20.48,20.71a24.61,24.61,0,0,0,7,1.12,22.57,22.57,0,0,0,22.5-22.5v-.68a14.48,14.48,0,0,0,4.5.68c1.46,0,1.68-1.46,1.68-3Z"/><path class="cls-3" d="M375.19,44.79a4.5,4.5,0,1,0,4.5-4.5A4.52,4.52,0,0,0,375.19,44.79Zm11.25,0a4.5,4.5,0,1,0,4.5-4.5A4.52,4.52,0,0,0,386.44,44.79Zm14.07,54.79c0-1.58-.23-3-1.69-3h-4.5a4.51,4.51,0,0,1-4.5-4.5V53.79l-13.5,10.12a4.52,4.52,0,0,1,4.5,4.5V92a4.52,4.52,0,0,1-4.5,4.5h-4.5c-1.47,0-1.69,1.46-1.69,3v2.92c0,1.58.22,3,1.69,3h4.5a13.73,13.73,0,0,0,9-3.38,13.28,13.28,0,0,0,9,3.38h4.5c1.46,0,1.69-1.46,1.69-3Z"/><path class="cls-3" d="M421.32,40.29a4.5,4.5,0,1,0,4.5-4.5A4.51,4.51,0,0,0,421.32,40.29Zm12.37,30.94a4.5,4.5,0,0,0,0,9A2.8,2.8,0,0,0,435,80c-2.13,1.91-7.2,3-10.35,3a12.38,12.38,0,1,1,12.38-12.38V72.8A4.39,4.39,0,0,0,433.69,71.23ZM397.13,102.5c0,1.58.23,3,1.69,3h33.75a13.31,13.31,0,0,0,5.17-1,11.87,11.87,0,0,0,10.58,6.63c-1.69-2-2.25-5.28-2.25-9V70.66a21.38,21.38,0,0,0-42.75,0c0,11.82,9.56,21.38,19.12,21.38,5.74,0,12-2.7,14.63-9.45V92a4.52,4.52,0,0,1-4.5,4.5H398.82c-1.46,0-1.69,1.46-1.69,3Z"/></svg>